<?xml version="1.0" encoding="UTF-8"?>
<svg id="Layer_1" data-name="Layer 1" xmlns="http://www.w3.org/2000/svg" viewBox="0 0 291.72 35.47">
  <defs>
    <style>
      .cls-1 {
        fill: #051838;
      }
    </style>
  </defs>
  <path class="cls-1" d="M0,30.42h1.77c2.5,0,2.7-.68,2.7-2.86v-5.3c0-5.3-.36-5.77-4.42-5.98l.05-4.32,10.09-.42.26.31c-1.04,3.28-1.2,4.99-1.46,8.06h.31c1.98-6.4,5.04-8.53,8.68-8.53,4.16,0,6.4,2.34,6.14,7.07l-.16,1.51h.36c1.46-4.94,4.84-8.58,8.63-8.58,4.52,0,6.66,2.81,6.66,7.33v8.84c0,2.18.21,2.86,2.7,2.86h1.77v4.52h-12.95v-4.52h1.3c1.82,0,1.98-.68,1.98-2.86v-5.41c0-3.54-1.56-4.84-4.47-4.84-2.24,0-5.3,2.5-5.3,5.67v4.58c0,2.18.16,2.86,1.98,2.86h1.3v4.52h-11.75v-4.52h1.3c1.82,0,1.98-.68,1.98-2.86v-5.41c0-3.54-1.56-4.84-4.37-4.84-2.44,0-5.36,2.7-5.36,5.67v4.58c0,2.18.16,2.86,1.98,2.86h1.3v4.52H0v-4.52Z"/>
  <path class="cls-1" d="M45.29,23.77c0-7.8,5.1-12.38,11.18-12.38,5.62,0,9,3.85,9,9.26,0,.83-.1,2.44-.16,3.85h-15.13c.42,3.48,2.55,5.46,5.88,5.46,2.34,0,4.52-.94,6.45-2.55l2.34,2.81c-1.72,2.34-4.26,5.25-9.31,5.25-6.66,0-10.24-5.2-10.24-11.7ZM60.95,21.37c.05-.26.05-.36.05-.88,0-2.34-1.92-3.8-4.99-3.8s-5.25,1.25-5.82,4.68h10.76Z"/>
  <path class="cls-1" d="M66.72,30.42h1.77c2.5,0,2.7-.68,2.7-2.86V8.58c0-2.91-.42-3.95-3.8-4.06V.31c4.37,0,7.02,0,9.46-.26l.31.42c-.73,5.88-.83,9.46-.83,16.17v10.92c0,2.18.21,2.86,2.7,2.86h1.77v4.52h-14.09v-4.52Z"/>
  <path class="cls-1" d="M93.13,16.95c-4.11,0-5.77,3.17-5.77,6.6,0,4.26,2.34,6.29,6.29,6.29,2.34,0,4.21-.83,5.88-1.98l1.87,3.59c-1.82,1.92-4.68,4-8.84,4-6.03,0-10.45-3.9-10.45-11.7s5.25-12.38,11.28-12.38c2.39,0,5.15.57,6.97,1.98-.26,1.77-.47,3.69-.83,5.62h-.26c-1.92-1.46-4.42-2.03-6.14-2.03Z"/>
  <path class="cls-1" d="M102.39,23.71c0-7.59,5.1-12.32,11.7-12.32s10.71,4.37,10.71,11.54c0,7.85-4.84,12.53-11.7,12.53-6.14,0-10.71-4.32-10.71-11.75ZM113.62,30.06c3.74,0,6.19-2.5,6.19-6.76,0-3.74-2.39-6.45-6.24-6.45s-6.19,2.39-6.19,6.71c0,3.95,2.39,6.5,6.24,6.5Z"/>
  <path class="cls-1" d="M127.3,23.71c0-7.59,5.1-12.32,11.7-12.32s10.71,4.37,10.71,11.54c0,7.85-4.84,12.53-11.7,12.53-6.14,0-10.71-4.32-10.71-11.75ZM138.53,30.06c3.74,0,6.19-2.5,6.19-6.76,0-3.74-2.39-6.45-6.24-6.45s-6.19,2.39-6.19,6.71c0,3.95,2.39,6.5,6.24,6.5Z"/>
  <path class="cls-1" d="M150.8,30.42h1.77c2.5,0,2.7-.68,2.7-2.86V10.97c0-5.56-.26-6.34-3.28-6.45V.31c3.8,0,6.66.1,8.89-.26l.31.42c-.62,5.88-.73,9.36-.73,16.17v6.24l5.1-4.73c1.46-1.4.36-1.72-.99-1.82v-4.37h11.13v4.21c-3.85.1-5.04,1.46-7.02,3.07l-2.29,1.87,5.51,6.71c1.87,2.34,2.76,2.76,5.2,2.76v4.37h-11.02v-4.58c2.55,0,2.5-.62.78-2.91l-3.12-4.21-3.28,2.65v1.66c0,2.18.1,2.86,2.44,2.86h1.2v4.52h-13.31v-4.52Z"/>
  <path class="cls-1" d="M187.98,29.85c2.03,0,3.28-.68,3.28-1.98,0-1.4-1.14-1.72-3.07-2.39l-2.03-.73c-3.28-1.04-5.56-3.17-5.56-6.45,0-4.11,3.59-6.92,7.75-6.92,3.48,0,5.2.47,7.85,1.61,0,1.87-.31,3.74-.88,5.62h-.31c-2.6-1.14-4.47-1.66-6.34-1.66-1.51,0-2.76.42-2.76,2.03,0,1.3.88,1.82,2.5,2.39l2.29.83c4,1.4,5.82,3.54,5.82,6.34,0,4.42-4.16,6.86-8.79,6.86-3.17,0-5.25-.57-7.7-1.51.1-1.92.31-3.85.88-5.72h.31c2.34,1.09,4.84,1.66,6.76,1.66Z"/>
  <path class="cls-1" d="M210.34,5.67c-2.6,0-3.95,1.04-3.95,3.17,0,1.09.47,2.18,1.09,3.12h7.44v4.73h-5.82v10.87c0,2.18.26,2.86,3.38,2.86h2.24v4.52h-15.39v-4.52h1.77c2.5,0,2.7-.68,2.7-2.86v-10.87h-3.74v-3.07l3.74-1.4c-.73-1.2-1.4-2.81-1.4-4.68,0-5.15,4.16-7.54,8.68-7.54,2.18,0,4.06.26,6.66,1.56-.21,1.87-.42,3.8-.83,5.77h-.42c-2.03-1.25-4.26-1.66-6.14-1.66Z"/>
  <path class="cls-1" d="M216.47,23.71c0-7.59,5.1-12.32,11.7-12.32s10.71,4.37,10.71,11.54c0,7.85-4.84,12.53-11.7,12.53-6.14,0-10.71-4.32-10.71-11.75ZM227.71,30.06c3.74,0,6.19-2.5,6.19-6.76,0-3.74-2.39-6.45-6.24-6.45s-6.19,2.39-6.19,6.71c0,3.95,2.39,6.5,6.24,6.5Z"/>
  <path class="cls-1" d="M241.38,23.71c0-7.59,5.1-12.32,11.7-12.32s10.71,4.37,10.71,11.54c0,7.85-4.84,12.53-11.7,12.53-6.14,0-10.71-4.32-10.71-11.75ZM252.61,30.06c3.74,0,6.19-2.5,6.19-6.76,0-3.74-2.39-6.45-6.24-6.45s-6.19,2.39-6.19,6.71c0,3.95,2.39,6.5,6.24,6.5Z"/>
  <path class="cls-1" d="M266.29,23.82c0-9.52,6.24-12.43,10.14-12.43,2.65,0,5.04.78,6.29,2.03v-4.73c0-3.54-.73-4.06-3.28-4.06V.31l8.32-.31.36.42c-.16,2.81-.26,8.06-.26,16.74v10.5c0,1.87.88,2.76,2.65,2.76h1.2v4.52l-8.58.05-.31-.47c.26-2.29.31-3.43.52-6.76h-.26c-.99,4.58-4.58,7.7-8.27,7.7-5.04,0-8.53-4.16-8.53-11.65ZM276.69,29.75c2.7,0,6.03-2.44,6.03-5.62v-5.51c-1.61-1.09-3.43-1.46-5.51-1.46-3.9,0-5.77,2.29-5.77,6.4,0,4.37,2.39,6.19,5.25,6.19Z"/>
</svg>