<?xml version="1.0" encoding="UTF-8"?>
<svg id="Layer_1" xmlns="http://www.w3.org/2000/svg" version="1.1" viewBox="0 0 299.5 46.6">
  <!-- Generator: Adobe Illustrator 29.5.1, SVG Export Plug-In . SVG Version: 2.1.0 Build 141)  -->
  <defs>
    <style>
      .st0 {
        isolation: isolate;
      }

      .st1 {
        fill: #051838;
      }
    </style>
  </defs>
  <g class="st0">
    <g class="st0">
      <g class="st0">
        <path class="st1" d="M1.4,38.3h1.8c2.5,0,2.7-.7,2.7-2.9v-5.3c0-5.3-.4-5.8-4.4-6v-4.3c0,0,10.1-.4,10.1-.4l.3.3c-1,3.3-1.2,5-1.5,8.1h.3c2-6.4,5-8.5,8.7-8.5s6.4,2.3,6.1,7.1l-.2,1.5h.4c1.5-4.9,4.8-8.6,8.6-8.6s6.7,2.8,6.7,7.3v8.8c0,2.2.2,2.9,2.7,2.9h1.8v4.5h-12.9v-4.5h1.3c1.8,0,2-.7,2-2.9v-5.4c0-3.5-1.6-4.8-4.5-4.8s-5.3,2.5-5.3,5.7v4.6c0,2.2.2,2.9,2,2.9h1.3v4.5h-11.8v-4.5h1.3c1.8,0,2-.7,2-2.9v-5.4c0-3.5-1.6-4.8-4.4-4.8s-5.4,2.7-5.4,5.7v4.6c0,2.2.2,2.9,2,2.9h1.3v4.5H1.4v-4.5Z"/>
      </g>
    </g>
    <g class="st0">
      <g class="st0">
        <path class="st1" d="M46.6,31.6c0-7.8,5.1-12.4,11.2-12.4s9,3.8,9,9.3-.1,2.4-.2,3.8h-15.1c.4,3.5,2.5,5.5,5.9,5.5s4.5-.9,6.4-2.5l2.3,2.8c-1.7,2.3-4.3,5.3-9.3,5.3s-10.2-5.2-10.2-11.7ZM62.3,29.2c0-.3,0-.4,0-.9,0-2.3-1.9-3.8-5-3.8s-5.3,1.2-5.8,4.7h10.8Z"/>
      </g>
    </g>
    <g class="st0">
      <g class="st0">
        <path class="st1" d="M68.1,38.3h1.8c2.5,0,2.7-.7,2.7-2.9v-19c0-2.9-.4-4-3.8-4.1v-4.2c4.4,0,7,0,9.5-.3l.3.4c-.7,5.9-.8,9.5-.8,16.2v10.9c0,2.2.2,2.9,2.7,2.9h1.8v4.5h-14.1v-4.5Z"/>
      </g>
    </g>
    <g class="st0">
      <g class="st0">
        <path class="st1" d="M94.6,24.8c-4.1,0-5.8,3.2-5.8,6.6s2.3,6.3,6.3,6.3,4.2-.8,5.9-2l1.9,3.6c-1.8,1.9-4.7,4-8.8,4-6,0-10.5-3.9-10.5-11.7s5.3-12.4,11.3-12.4,5.1.6,7,2c-.3,1.8-.5,3.7-.8,5.6h-.3c-1.9-1.5-4.4-2-6.1-2Z"/>
      </g>
    </g>
    <g class="st0">
      <g class="st0">
        <path class="st1" d="M103.7,31.6c0-7.6,5.1-12.3,11.7-12.3s10.7,4.4,10.7,11.5-4.8,12.5-11.7,12.5-10.7-4.3-10.7-11.8ZM115,37.9c3.7,0,6.2-2.5,6.2-6.8s-2.4-6.4-6.2-6.4-6.2,2.4-6.2,6.7,2.4,6.5,6.2,6.5Z"/>
      </g>
    </g>
    <g class="st0">
      <g class="st0">
        <path class="st1" d="M128.6,31.6c0-7.6,5.1-12.3,11.7-12.3s10.7,4.4,10.7,11.5-4.8,12.5-11.7,12.5-10.7-4.3-10.7-11.8ZM139.9,37.9c3.7,0,6.2-2.5,6.2-6.8s-2.4-6.4-6.2-6.4-6.2,2.4-6.2,6.7,2.4,6.5,6.2,6.5Z"/>
      </g>
    </g>
    <g class="st0">
      <g class="st0">
        <path class="st1" d="M152.2,38.3h1.8c2.5,0,2.7-.7,2.7-2.9v-16.6c0-5.6-.3-6.3-3.3-6.4v-4.2c3.8,0,6.7.1,8.9-.3l.3.4c-.6,5.9-.7,9.4-.7,16.2v6.2l5.1-4.7c1.5-1.4.4-1.7-1-1.8v-4.4h11.1v4.2c-3.8.1-5,1.5-7,3.1l-2.3,1.9,5.5,6.7c1.9,2.3,2.8,2.8,5.2,2.8v4.4h-11v-4.6c2.5,0,2.5-.6.8-2.9l-3.1-4.2-3.3,2.7v1.7c0,2.2.1,2.9,2.4,2.9h1.2v4.5h-13.3v-4.5Z"/>
      </g>
    </g>
    <g class="st0">
      <g class="st0">
        <path class="st1" d="M189.3,37.7c2,0,3.3-.7,3.3-2s-1.1-1.7-3.1-2.4l-2-.7c-3.3-1-5.6-3.2-5.6-6.4s3.6-6.9,7.7-6.9,5.2.5,7.9,1.6c0,1.9-.3,3.7-.9,5.6h-.3c-2.6-1.1-4.5-1.7-6.3-1.7s-2.8.4-2.8,2,.9,1.8,2.5,2.4l2.3.8c4,1.4,5.8,3.5,5.8,6.3,0,4.4-4.2,6.9-8.8,6.9s-5.3-.6-7.7-1.5c.1-1.9.3-3.8.9-5.7h.3c2.3,1.1,4.8,1.7,6.8,1.7Z"/>
      </g>
    </g>
    <g class="st0">
      <g class="st0">
        <path class="st1" d="M211.7,13.5c-2.6,0-4,1-4,3.2s.5,2.2,1.1,3.1h7.4v4.7h-5.8v10.9c0,2.2.3,2.9,3.4,2.9h2.2v4.5h-15.4v-4.5h1.8c2.5,0,2.7-.7,2.7-2.9v-10.9h-3.7v-3.1l3.7-1.4c-.7-1.2-1.4-2.8-1.4-4.7,0-5.1,4.2-7.5,8.7-7.5s4.1.3,6.7,1.6c-.2,1.9-.4,3.8-.8,5.8h-.4c-2-1.2-4.3-1.7-6.1-1.7Z"/>
      </g>
    </g>
    <g class="st0">
      <g class="st0">
        <path class="st1" d="M217.8,31.6c0-7.6,5.1-12.3,11.7-12.3s10.7,4.4,10.7,11.5-4.8,12.5-11.7,12.5-10.7-4.3-10.7-11.8ZM229.1,37.9c3.7,0,6.2-2.5,6.2-6.8s-2.4-6.4-6.2-6.4-6.2,2.4-6.2,6.7,2.4,6.5,6.2,6.5Z"/>
        <path class="st1" d="M242.8,31.6c0-7.6,5.1-12.3,11.7-12.3s10.7,4.4,10.7,11.5-4.8,12.5-11.7,12.5-10.7-4.3-10.7-11.8ZM254,37.9c3.7,0,6.2-2.5,6.2-6.8s-2.4-6.4-6.2-6.4-6.2,2.4-6.2,6.7,2.4,6.5,6.2,6.5Z"/>
        <path class="st1" d="M267.7,31.7c0-9.5,6.2-12.4,10.1-12.4s5,.8,6.3,2v-4.7c0-3.5-.7-4.1-3.3-4.1v-4.3l8.3-.3.4.4c-.2,2.8-.3,8.1-.3,16.7v10.5c0,1.9.9,2.8,2.7,2.8h1.2v4.5h-8.6c0,0-.3-.4-.3-.4.3-2.3.3-3.4.5-6.8h-.3c-1,4.6-4.6,7.7-8.3,7.7s-8.5-4.2-8.5-11.6ZM278.1,37.6c2.7,0,6-2.4,6-5.6v-5.5c-1.6-1.1-3.4-1.5-5.5-1.5-3.9,0-5.8,2.3-5.8,6.4s2.4,6.2,5.3,6.2Z"/>
      </g>
    </g>
  </g>
</svg>