<?xml version="1.0" encoding="utf-8"?>
<!-- Generator: Adobe Illustrator 28.3.0, SVG Export Plug-In . SVG Version: 6.00 Build 0)  -->
<svg version="1.1" id="_x2014_ÎÓÈ_x5F_1" xmlns="http://www.w3.org/2000/svg" xmlns:xlink="http://www.w3.org/1999/xlink"
	 x="0px" y="0px" viewBox="0 0 1108.16 1108.16" style="enable-background:new 0 0 1108.16 1108.16;" xml:space="preserve">
<style type="text/css">
	.st0{fill:none;stroke:#F0DBB9;stroke-width:6.855;stroke-linecap:round;stroke-linejoin:round;stroke-miterlimit:10;}
	.st1{fill:none;}
</style>
<g>
	<path class="st0" d="M538.33,438.99l0.6-45.94c0-0.11,0.01-0.25,0.01-0.42c0.03-2.68-0.41-11.48-7.1-19
		c-4.92-5.53-11.89-8.87-20.73-10.05l2.4-132c0.06-4.43-3.29-8.07-7.48-8.13c-4.19-0.05-7.64,3.5-7.69,7.93l-2.4,131.98
		c-8.94,0.93-16.04,4.09-21.14,9.52c-7.3,7.79-7.63,17.22-7.59,19.22l-0.82,63.25"/>
	<path class="st0" d="M481.7,444.73l0.68-52.54c0-0.14,0-0.28,0-0.42c-0.02-0.12,0.04-4.21,3.19-7.57c2.23-2.38,5.7-3.93,10.16-4.63
		L494.93,440"/>
	<path class="st0" d="M523.08,443.92l0.66-51.19c0-0.14,0.01-0.28,0.02-0.42c0-0.04,0.07-4.34-3.13-7.81
		c-2.14-2.32-5.46-3.9-9.73-4.71l-0.78,59.97"/>
	<g>
		<path class="st0" d="M477.62,446.96c7.03-4.21,14.95-7.17,22.84-7.76"/>
		<path class="st0" d="M450.09,481.77c-2.31,7.92-2.89,16.3-1.3,24.42c0.29,1.5,0.66,2.96,1.07,4.4"/>
		<path class="st0" d="M558.35,482.41c-1.14-4.1-2.64-8.1-4.61-11.9c-2.71-5.22-6.1-9.58-9.92-13.38"/>
		<path class="st0" d="M544.04,549.54c-5.74,7.81-12.62,14.82-20.2,20.86"/>
		<path class="st0" d="M463.43,458.29c0.77-0.83,1.57-1.64,2.39-2.42c3.44-3.27,7.45-6.32,11.79-8.92"/>
		<path class="st0" d="M525.91,445.04c-4.47-2.01-9.2-3.66-14.16-4.94c-3.68-0.95-7.48-1.19-11.29-0.91"/>
		<path class="st0" d="M525.91,445.04c6.71,3.01,12.75,6.98,17.91,12.09"/>
		<path class="st0" d="M401,607.54c0.06-0.22,0.12-0.45,0.18-0.67"/>
		<path class="st0" d="M477.66,555.12c3.94,5.33,7.6,10.8,10.57,16.61"/>
		<path class="st0" d="M488.24,571.73c0.34,0.67,0.71,1.33,1.03,2.01c3.79,7.99,6,16.74,6.52,25.56"/>
		<path class="st0" d="M469.85,544.87c-3.23-4.17-6.4-8.36-9.31-12.65"/>
		<path class="st0" d="M453.56,520.27c-1.49-3.11-2.75-6.33-3.7-9.68"/>
		<path class="st0" d="M477.66,555.12c-2.55-3.45-5.19-6.85-7.82-10.25"/>
		<path class="st0" d="M450.09,481.77c2.53-8.69,7.15-16.84,13.34-23.48"/>
		<path class="st0" d="M453.56,520.27c1.98,4.13,4.36,8.09,6.98,11.95"/>
		<path class="st0" d="M412.37,647.59c5.72,5.45,12.95,9.04,20.62,10.81"/>
		<path class="st0" d="M400.99,606.86c-2.47,8.67-1.65,18.08,1.74,26.39"/>
		<path class="st0" d="M495.05,613.51c-0.47,2.86-1.08,5.69-1.97,8.46c-5.06,15.72-17.21,29.26-32.73,34.92
			c-8.7,3.17-18.35,3.59-27.36,1.51"/>
		<path class="st0" d="M495.05,613.51c0.78-4.69,1.03-9.46,0.74-14.22"/>
		<path class="st0" d="M466.27,676.75c-7.73,2.25-15.64,2.27-22.32-2.72"/>
		<path class="st0" d="M505.18,644c-8.07,15.61-21.81,28.02-38.91,32.76"/>
		<path class="st0" d="M465.6,500.88c5.01,23.79,26.45,40.64,37.06,61.88c10.3,20.62,14.62,44.17,8.28,66.64"/>
		<path class="st0" d="M500.46,439.2c-15.49,11.66-28.36,27.5-33.69,46.39"/>
		<path class="st0" d="M556.53,560.43c-4.56-3.17-8.78-6.76-12.5-10.88"/>
		<path class="st0" d="M558.35,482.41c3.65-1.36,7.45-2.33,11.27-2.83c2.48-0.32,4.96-0.5,7.41-0.58"/>
		<path class="st0" d="M577.03,479.01c0.57-0.02,1.15-0.06,1.72-0.07"/>
		<path class="st0" d="M615.41,492.97c-5.25-5.85-12.31-9.81-19.84-11.9"/>
		<path class="st0" d="M618.07,547.02c7.47-11,9.64-25,6.1-37.79"/>
		<path class="st0" d="M578.76,478.94c5.84-0.05,11.52,0.64,16.81,2.12"/>
		<path class="st0" d="M540.38,494.24c4.82-5.25,11.12-9.27,17.97-11.83"/>
		<path class="st0" d="M606.95,586.17c-0.39-0.27-0.79-0.52-1.18-0.77"/>
		<path class="st0" d="M556.53,560.43c0.02,0.02,0.05,0.03,0.07,0.05"/>
		<path class="st0" d="M586.26,575.62c6.76,2.84,13.47,5.8,19.51,9.77"/>
		<path class="st0" d="M531.83,525.97c-1.25-6.22-1.12-12.63,0.84-18.7c1.58-4.91,4.27-9.28,7.71-13.03"/>
		<path class="st0" d="M586.26,575.62c-2.42-1.02-4.85-2.03-7.25-3.07c-7.78-3.37-15.46-7.26-22.41-12.08"/>
		<path class="st0" d="M531.83,525.97c1.63,8.1,5.6,15.9,10.96,22.23c0.4,0.47,0.83,0.89,1.24,1.34"/>
		<path class="st0" d="M562.71,544.15c22.02,14.76,63.32,19.33,65.45,52.66"/>
		<path class="st0" d="M560.71,496.56c6.81-2.81,15.04-2.84,22.09-0.32c15.81,5.65,26.65,22.81,24.96,39.51"/>
		<path class="st0" d="M560.71,496.56c-15.1,6.13-16.7,24.14-8.98,36.81"/>
		<path class="st0" d="M584.21,512.4c-6.65-5.56-18.44-10.06-20.01,2.04c-1.84,14.21,16.3,22.2,26.71,26.91
			c17.79,8.04,44.06,9.35,48.34,39.17"/>
		<path class="st0" d="M595.57,481.06c0.16-16.9-10.26-33.54-25.68-40.55c-14.07-6.4-31.45-4.41-43.98,4.52"/>
		<path class="st0" d="M543.81,457.13c5.88-1.97,12.95-1.1,18.36,2.22c7.13,4.38,11.74,11.81,14.86,19.66"/>
		<path class="st0" d="M578.76,478.94c0.01-0.08,0.03-0.16,0.04-0.25"/>
		<path class="st0" d="M526.27,659.58c-0.41,0.67-0.75,1.36-1.19,2.01c-7.45,10.92-19.79,18.37-32.92,19.87
			c-8.85,1.01-17.92-0.75-25.89-4.71"/>
		<path class="st0" d="M483.39,492.74c0.2,8.71,2.91,17.38,6.84,25.42"/>
		<path class="st0" d="M483.39,492.74c-0.08-3.23,0.14-6.45,0.82-9.65c1.15-5.39,3.79-10.54,7.41-14.76"/>
		<path class="st0" d="M502.44,537.93c5.49,7.75,11.23,15.34,15.94,23.59c6.24,10.9,10.53,22.82,13.18,35.11"/>
		<path class="st0" d="M502.44,537.93c-3-4.23-5.93-8.5-8.57-12.96c-1.31-2.2-2.51-4.49-3.64-6.82"/>
		<path class="st0" d="M531.83,525.97c-4.96,9.82-11.49,19.18-17.98,27.94"/>
		<path class="st0" d="M531.56,596.63c1.31,6.1,2.25,12.29,2.77,18.5c1.26,15.27-0.12,31.45-8.06,44.45"/>
		<path class="st0" d="M523.93,461.18c-11.15-6.55-24.29-2.19-32.31,7.14"/>
		<path class="st0" d="M540.38,494.24c0.08-7.43-1.55-14.71-5.2-21.21"/>
		<path class="st0" d="M523.64,491.05c-1.67-14.42-16.23-31.8-32.02-22.72"/>
		<path class="st0" d="M502.44,537.93c7.36-5.44,13.23-12.84,16.97-21.18"/>
		<path class="st0" d="M490.23,518.16c7.18-6.42,21.52-21.73,11.07-31.2"/>
		<path class="st0" d="M531.56,596.63c-0.13,0.12-0.26,0.24-0.39,0.36"/>
		<path class="st0" d="M549.81,574.65c2.66-4.53,4.92-9.29,6.72-14.22"/>
		<path class="st0" d="M531.56,596.63c7.23-6.26,13.41-13.73,18.25-21.98"/>
		<path class="st0" d="M556.6,560.48c-0.09,0.36-0.18,0.72-0.27,1.08"/>
		<path class="st0" d="M591.85,614.68c-10.47,9.11-24.69,10.8-36.99,4.39"/>
		<path class="st0" d="M606.95,586.17c-1.93,10.03-6.13,19.77-13.35,26.96c-0.55,0.55-1.16,1.04-1.75,1.56"/>
		<path class="st0" d="M585.19,599.78c-14.23,11.76-36.64,2.44-38.52-16"/>
		<path class="st0" d="M591.85,614.68c-1.58,17.77-14.6,34.64-33.93,34.35c-8.05-0.12-16.19-4.29-20.07-11.35"/>
		<path class="st0" d="M526.27,659.58c18.05,11.61,40.84,10.85,58.73-0.68c12.46-8.03,20.94-20.92,25.75-34.75
			c4.13-11.86,8.71-29.48-3.79-37.99"/>
		<path class="st0" d="M418.7,605.73c0.46,7.43,4.51,14.8,10.56,19.37c8.51,6.44,19.93,8,30.5,6.52
			c13.35-1.87,25.95-8.41,35.29-18.11"/>
		<path class="st0" d="M449.34,598.45c5.2-8.06,13.39-14.66,21.61-19.44"/>
		<path class="st0" d="M449.34,598.45c-1.27,2.16-2.05,4.51-1.51,6.9c0.63,2.76,2.95,4.89,5.56,5.96c2.61,1.07,5.5,1.25,8.32,1.28
			c7.4,0.1,14.93-0.69,21.72-3.63c4.85-2.1,9.27-5.42,12.35-9.67"/>
		<path class="st0" d="M428.27,512.03c7.15-0.82,14.38-1.2,21.59-1.44"/>
		<path class="st0" d="M428.27,512.03c-4.05,0.46-8.07,1.07-12.05,1.87"/>
		<path class="st0" d="M372.01,541.99c-18.03,29.07-1.63,63.83,28.98,64.88"/>
		<path class="st0" d="M399.46,518.74c-6.01,2.89-11.71,6.81-16.71,11.84"/>
		<path class="st0" d="M416.22,513.89c-4.31,0.87-8.57,1.95-12.76,3.34c-1.35,0.45-2.68,0.99-4.01,1.5"/>
		<path class="st0" d="M449.34,598.45c-9.95,3.28-20.18,5.73-30.54,7.27c-0.03,0-0.07,0.01-0.1,0.01"/>
		<path class="st0" d="M418.7,605.73c-5.7,0.84-11.66,1.32-17.52,1.14"/>
		<path class="st0" d="M424.9,579.1c18.77-4.32,38.7-10.06,52.76-23.98"/>
		<path class="st0" d="M453.56,520.27c-20.55-0.87-44.33,6.17-58.74,21.53c-15.39,16.41-7.81,40.25,16.26,39.37"/>
		<path class="st0" d="M419.52,542.57c-8.72,7.34-9.08,20.38,3.64,22.6c16.08,2.81,35-10.92,46.69-20.3"/>
		<path class="st0" d="M460.54,532.22c-7.57-0.8-15.29-0.18-22.64,1.78"/>
		<path class="st0" d="M399.46,518.74c-5.67-36.34,16.3-81.87,58.71-78.06"/>
		<path class="st0" d="M416.22,513.89c-4.85-14.16-1.71-30.9,8.27-42.12c9.54-10.72,24.84-15.83,38.94-13.48"/>
		<path class="st0" d="M428.27,512.03c-0.69-7.6,1.76-15.46,6.76-21.23c3.9-4.5,9.28-7.65,15.06-9.02"/>
		<path class="st0" d="M586.26,575.62c-3.35,5.43-7.55,10.32-13.59,11.61c-5.33,1.14-10.94-0.97-15.23-4.34
			c-2.95-2.32-5.37-5.21-7.62-8.23"/>
	</g>
</g>
<path id="SVGID_x5F_1_x5F_" class="st1" d="M691.79,628.8C648.66,731.86,530.14,780.44,427.08,737.3S275.43,575.65,318.57,472.58
	s161.66-151.64,264.72-108.51S734.93,525.73,691.79,628.8z"/>
<text><textPath  xlink:href="#SVGID_x5F_1_x5F_" startOffset="-25005.9082%">
<tspan  style="fill:#A84842; font-family:'JeanneModernoOT-Roman'; font-size:69.7376px;">Mel’s</tspan><tspan  style="fill:#F0DBB9; font-family:'JeanneModernoOT-Roman'; font-size:46.5137px;">at</tspan><tspan  style="fill:#A84842; font-family:'JeanneModernoOT-Roman'; font-size:69.7376px;">Mccollum</tspan><tspan  style="font-family:'JeanneModernoOT-Roman'; font-size:69.7376px;"> </tspan></textPath>
</text>
</svg>
